# xmcd
#
# Track frame offsets: 
#        150
#        17480
#        32431
#        50504
#        66395
#        83181
#        97810
#        115269
#        132328
#        149836
#
# Disc length: 2215 seconds
#
# Revision: 0
# Processed by: cddbd v1.5.2PL0 Copyright (c) Steve Scherf et al.
# Submitted via: ExactAudioCopyFreeDBPlugin 1.0
#
DISCID=8608a50a
DTITLE=Mosley and Johnson - Mosley and Johnson (2014 Remastered)
DYEAR=1987
DGENRE=Soul
TTITLE0=Rock Me
TTITLE1=Money's Runnin' Funny
TTITLE2=Runnin' In and Out Of My Life
TTITLE3=Modern Times
TTITLE4=Baby Come Back
TTITLE5=Are You Gonna Throw Down
TTITLE6=Savin' Up
TTITLE7=Show Me
TTITLE8=Music From My Soul
TTITLE9=I Love You (Yes I Do)
EXTD=
EXTT0=
EXTT1=
EXTT2=
EXTT3=
EXTT4=
EXTT5=
EXTT6=
EXTT7=
EXTT8=
EXTT9=
PLAYORDER=
